<svg width="163" height="123" viewBox="0 0 163 123" fill="none" xmlns="http://www.w3.org/2000/svg">
<path d="M19.0348 47.576C26.6188 47.576 32.2348 43.304 33.3388 37.064L27.2428 35.816C26.6188 39.56 23.4508 42.296 19.0348 42.296C13.2268 42.296 9.67475 37.736 9.67475 30.2C9.67475 22.664 13.2268 18.104 19.0348 18.104C23.4508 18.104 26.6188 20.84 27.2428 24.584L33.3388 23.336C32.2348 17.096 26.6188 12.824 19.0348 12.824C9.19475 12.824 2.95475 19.688 2.95475 30.2C2.95475 40.712 9.19475 47.576 19.0348 47.576ZM46.3111 47.576C50.5351 47.576 53.7031 45.944 54.9991 42.872L55.3831 47H60.9031V28.76C60.9031 23.288 56.8711 19.928 50.1991 19.928C44.0071 19.928 39.6391 23.048 38.9671 27.896L44.8231 28.664C45.2551 26.12 47.2231 24.488 49.9111 24.488C52.5511 24.488 54.4231 26.072 54.4231 28.376V29.816L46.5511 31.16C40.9831 32.12 37.6711 34.904 37.6711 39.8C37.6711 44.552 40.9831 47.576 46.3111 47.576ZM43.7191 39.368C43.7191 37.544 44.8711 35.912 47.5591 35.432L54.4231 34.136V36.632C54.4231 40.328 51.9751 43.016 48.2311 43.016C45.6871 43.016 43.7191 41.72 43.7191 39.368ZM77.5516 47.576C83.9356 47.576 87.9196 44.312 87.9196 39.128C87.9196 35.624 85.5196 32.6 81.1516 31.736L75.8236 30.68C73.6636 30.248 72.5116 29.192 72.5116 27.56C72.5116 25.736 74.1436 24.488 76.6396 24.488C79.5196 24.488 81.5836 26.12 81.9676 28.712L87.4876 27.8C86.8636 23.048 82.5436 19.928 76.5436 19.928C70.5436 19.928 66.5116 23.144 66.5116 27.944C66.5116 31.448 69.2956 34.712 74.0476 35.624L78.7516 36.536C80.7196 36.92 81.9196 37.88 81.9196 39.608C81.9196 41.72 80.2396 43.016 77.4556 43.016C74.3356 43.016 71.9356 41.336 71.4076 38.84L65.9356 39.704C66.5116 44.408 71.1676 47.576 77.5516 47.576ZM102.895 47.576C106.351 47.576 109.039 45.992 110.191 43.304L110.527 47H116.047V20.504H109.567V35.672C109.567 39.752 107.503 42.296 104.431 42.296C101.359 42.296 99.6313 40.088 99.6313 36.488V20.504H93.1513V37.544C93.1513 43.448 97.0393 47.576 102.895 47.576ZM130.217 47.576C134.441 47.576 137.609 45.944 138.905 42.872L139.289 47H144.809V28.76C144.809 23.288 140.777 19.928 134.105 19.928C127.913 19.928 123.545 23.048 122.873 27.896L128.729 28.664C129.161 26.12 131.129 24.488 133.817 24.488C136.457 24.488 138.329 26.072 138.329 28.376V29.816L130.457 31.16C124.889 32.12 121.577 34.904 121.577 39.8C121.577 44.552 124.889 47.576 130.217 47.576ZM127.625 39.368C127.625 37.544 128.777 35.912 131.465 35.432L138.329 34.136V36.632C138.329 40.328 135.881 43.016 132.137 43.016C129.593 43.016 127.625 41.72 127.625 39.368ZM156.37 47.288H161.266V42.344H159.73C158.626 42.344 157.954 41.72 157.954 40.616V12.824H151.474V42.44C151.474 45.56 153.298 47.288 156.37 47.288ZM11.8959 107H25.0479C34.3119 107 40.6479 100.376 40.6479 90.2C40.6479 80.024 34.3119 73.4 25.0479 73.4H11.8959V107ZM18.5679 101.48V78.92H24.2799C30.4239 78.92 33.9759 83.384 33.9759 90.2C33.9759 97.016 30.4239 101.48 24.2799 101.48H18.5679ZM50.1586 78.104C52.1746 78.104 53.8546 76.52 53.8546 74.504C53.8546 72.488 52.1746 70.904 50.1586 70.904C48.0946 70.904 46.4626 72.488 46.4626 74.504C46.4626 76.52 48.0946 78.104 50.1586 78.104ZM46.9426 107H53.4226V80.504H46.9426V107ZM60.5364 107H67.0164V92.696C67.0164 88.184 68.8404 85.976 72.2484 85.976C73.4004 85.976 74.4564 86.216 75.0324 86.456L76.4724 81.32C75.2724 80.504 73.8804 80.216 72.5364 80.216C69.7044 80.216 67.4004 81.944 66.3444 84.68L66.0564 80.504H60.5364V107ZM92.0675 107.576C97.7315 107.576 101.956 104.792 103.204 100.28L97.3955 99.08C96.7715 101.288 94.7555 102.776 92.1635 102.776C88.5155 102.776 86.1155 100.088 85.7795 95.576H103.635C103.828 95 103.876 93.704 103.876 92.312C103.876 85.16 99.3155 79.928 92.0195 79.928C84.2915 79.928 79.3955 85.256 79.3955 93.656C79.3955 102.104 84.2915 107.576 92.0675 107.576ZM91.9235 84.728C95.4755 84.728 97.6835 87.176 97.7315 91.256H85.7795C86.2115 87.08 88.4675 84.728 91.9235 84.728ZM120.8 107.576C127.136 107.576 131.696 103.832 132.272 98.264L126.464 97.4C126.032 100.376 123.92 102.296 120.992 102.296C117.104 102.296 114.8 99.08 114.8 93.752C114.8 88.424 117.104 85.208 120.992 85.208C123.92 85.208 126.08 87.08 126.464 90.008L132.272 89.144C131.696 83.576 127.184 79.928 120.8 79.928C113.168 79.928 108.224 85.304 108.224 93.704C108.224 102.152 113.168 107.576 120.8 107.576ZM146.906 107.288H152.618V102.344H149.402C148.106 102.344 147.29 101.624 147.29 100.328V85.304H153.338V80.504H147.29V74.84H141.482L140.81 80.504H135.818V85.304H140.81V101.768C140.81 105.416 142.922 107.288 146.906 107.288Z" fill="#3838A8"/>
<rect x="158" y="56" width="1" height="67" fill="#3838A8"/>
</svg>
