<svg width="16" height="14" viewBox="0 0 16 14" fill="none" xmlns="http://www.w3.org/2000/svg">
<path fill-rule="evenodd" clip-rule="evenodd" d="M3.37203e-05 6.99988C3.3672e-05 6.44689 0.447026 5.99989 1.00002 5.99989L12.5858 5.99989L8.29289 1.70697C7.90189 1.31598 7.90189 0.683989 8.29289 0.292996C8.48788 0.0979993 8.74388 6.3435e-07 8.99987 6.1197e-07C9.25587 5.89591e-07 9.51186 0.0979992 9.70686 0.292996L15.7068 6.29289C16.0977 6.68388 16.0977 7.31587 15.7068 7.70686L9.70686 13.7068C9.31587 14.0977 8.68388 14.0977 8.29289 13.7068C7.90189 13.3158 7.90189 12.6838 8.29289 12.2928L12.5858 7.99986L1.00002 7.99986C0.447026 7.99986 3.37686e-05 7.55287 3.37203e-05 6.99988Z" fill="black"/>
</svg>
