<svg width="164" height="82" viewBox="0 0 164 82" fill="none" xmlns="http://www.w3.org/2000/svg">
<path fill-rule="evenodd" clip-rule="evenodd" d="M151.333 72H151.143C148.302 72 146 69.697 146 66.857V66H146.856C149.646 66 151.903 68.224 151.984 70.992L150 70L151.333 72ZM164 62V63.429C164 67.729 160.83 71.279 156.701 71.896L158 68L154 71.2V70.571C154 65.838 157.837 62 162.571 62H164ZM146 80L152.11 73.89C152.625 73.375 153.434 73.305 154.03 73.722L163 80H146Z" fill="white"/>
<path fill-rule="evenodd" clip-rule="evenodd" d="M16 11C16.4 11 16.762 10.762 16.919 10.394L19.919 3.394C20.052 3.085 20.02 2.73 19.835 2.449C19.649 2.169 19.336 2 19 2H4.388L3.948 0.684C3.812 0.275 3.431 0 3 0H0V2H2L2.335 2.167L4.82 9.623L3.217 12.829C2.982 13.297 3.008 13.843 3.283 14.288C3.559 14.734 4.035 15 4.559 15H18V13H5.367L6.368 11H16ZM15 16C13.896 16 13 16.896 13 18C13 19.104 13.896 20 15 20C16.104 20 17 19.104 17 18C17 16.896 16.104 16 15 16ZM7 18C7 19.104 6.104 20 5 20C3.896 20 3 19.104 3 18C3 16.896 3.896 16 5 16C6.104 16 7 16.896 7 18Z" fill="white"/>
<path fill-rule="evenodd" clip-rule="evenodd" d="M90.396 2.6275C92.536 4.7975 92.536 8.3165 90.396 10.4865L82 19.0005L73.605 10.4865C71.465 8.3165 71.465 4.7975 73.605 2.6275C75.746 0.4575 79.214 0.4575 81.355 2.6275C81.599 2.8755 81.812 3.1425 82 3.4215C82.189 3.1425 82.402 2.8755 82.646 2.6275C84.787 0.4575 88.255 0.4575 90.396 2.6275Z" fill="white"/>
<path fill-rule="evenodd" clip-rule="evenodd" d="M82 82C83.485 82 84.71 80.917 84.95 79.5H79.05C79.29 80.917 80.515 82 82 82ZM91 77C91 77.553 90.552 78 90 78H74C73.448 78 73 77.553 73 77C73 76.447 73.448 76 74 76H75V69.5C75 66.631 77.197 64.278 80 64.025V64C80 62.896 80.896 62 82 62C83.104 62 84 62.896 84 64V64.025C86.803 64.278 89 66.631 89 69.5V76H90C90.552 76 91 76.447 91 77Z" fill="white"/>
<path fill-rule="evenodd" clip-rule="evenodd" d="M161 6.5C161 6.776 160.776 7 160.5 7H157.5C157.224 7 157 6.776 157 6.5V4.5C157 4.224 157.224 4 157.5 4H160.5C160.776 4 161 4.224 161 4.5V6.5ZM161 11.5C161 11.776 160.776 12 160.5 12H152.5C152.224 12 152 11.776 152 11.5V10.5C152 10.224 152.224 10 152.5 10H160.5C160.776 10 161 10.224 161 10.5V11.5ZM161 15.5C161 15.776 160.776 16 160.5 16H152.5C152.224 16 152 15.776 152 15.5V14.5C152 14.224 152.224 14 152.5 14H160.5C160.776 14 161 14.224 161 14.5V15.5ZM149 15.5C149 16.327 148.327 17 147.5 17C146.673 17 146 16.327 146 15.5V9H149V15.5ZM163.5 1H149.5C149.224 1 149 1.224 149 1.5V7H145.5C144.672 7 144 7.671 144 8.5V15.5C144 17.433 145.567 19 147.5 19H161.5C162.881 19 164 17.881 164 16.5V1.5C164 1.224 163.776 1 163.5 1Z" fill="white"/>
<path d="M15.816 66H18C18.552 66 19 66.447 19 67V69C19 69.553 18.552 70 18 70H11V66H13C13.551 66 14 65.551 14 65C14 64.449 13.551 64 13 64C11.897 64 11 64.896 11 66H9C9 64.896 8.103 64 7 64C6.449 64 6 64.449 6 65C6 65.551 6.449 66 7 66H9V70H2C1.448 70 1 69.553 1 69V67C1 66.447 1.448 66 2 66H4.185C4.072 65.686 4 65.353 4 65C4 63.346 5.346 62 7 62C8.2 62 9.266 62.542 10 63.383C10.734 62.542 11.8 62 13 62C14.654 62 16 63.346 16 65C16 65.353 15.928 65.686 15.816 66Z" fill="white"/>
<path d="M3 72V81C3 81.553 3.448 82 4 82H9V72H3Z" fill="white"/>
<path d="M11 72V82H16C16.552 82 17 81.553 17 81V72H11Z" fill="white"/>
</svg>
